# xmcd
#
# Track frame offsets:
#	150
#	19831
#	41588
#	63528
#	78658
#	83528
#	95753
#	114833
#	137197
#	153164
#	168882
#	188368
#	201462
#	216602
#	232734
#	252931
#	269711
#	287539
#	306429
#	323066
#
# Disc length: 4574 seconds
#
# Revision: 0
# Processed by: cddbd v1.5.2PL0 Copyright (c) Steve Scherf et al.
# Submitted via: EZCDAudioConverter 3.1.0.1
#
DISCID=1911dc14
DTITLE=Olympic - Ulice
DYEAR=2007
DGENRE=
TTITLE0=Ulice
TTITLE1=Okno mé lásky
TTITLE2=Úspěšný mladý muž
TTITLE3=Tváře slov
TTITLE4=Ulice II
TTITLE5=Paní Nostalgie
TTITLE6=Já
TTITLE7=Černá mše za nukleárního boha
TTITLE8=Každý den
TTITLE9=Ulice III
TTITLE10=Jasná zpráva
TTITLE11=Já je znám
TTITLE12=Dnes už ne
TTITLE13=Nikdo nejsme akorát
TTITLE14=Blíženci
TTITLE15=Nic víc
TTITLE16=Každý den
TTITLE17=Já
TTITLE18=Černá mše
TTITLE19=Ulice I
EXTD=
EXTT0=
EXTT1=
EXTT2=
EXTT3=
EXTT4=
EXTT5=
EXTT6=
EXTT7=
EXTT8=
EXTT9=
EXTT10=
EXTT11=
EXTT12=
EXTT13=
EXTT14=
EXTT15=
EXTT16=
EXTT17=
EXTT18=
EXTT19=
PLAYORDER=
